<svg xmlns="http://www.w3.org/2000/svg" viewBox="0 0 512 341.3"><style>.st0{fill:#f0f0f0}.st1{fill:#d80027}.st2{fill:#0052b4}</style><path d="M0 0h512v341.3H0z" class="st0"/><path d="M288 0h-64v138.7H0v64h224v138.6h64V202.7h224v-64H288z" class="st1"/><path d="M393.8 230 512 295.7V230z" class="st2"/><path d="M311.7 230 512 341.3v-31.4L368.3 230z" class="st2"/><path d="m458.6 341.3-146.9-81.6v81.6z" class="st2"/><path d="M311.7 230 512 341.3v-31.4L368.3 230z" class="st0"/><path d="M311.7 230 512 341.3v-31.4L368.3 230z" class="st1"/><path d="M90.3 230 0 280.2V230z" class="st2"/><path d="M200.3 244.2v97.1H25.5z" class="st2"/><path d="M143.7 230 0 309.9v31.4L200.3 230z" class="st1"/><path d="M118.2 111.3 0 45.6v65.7z" class="st2"/><path d="M200.3 111.3 0 0v31.5l143.7 79.8z" class="st2"/><path d="m53.4 0 146.9 81.7V0z" class="st2"/><path d="M200.3 111.3 0 0v31.5l143.7 79.8z" class="st0"/><path d="M200.3 111.3 0 0v31.5l143.7 79.8z" class="st1"/><path d="M421.7 111.3 512 61.1v50.2z" class="st2"/><path d="M311.7 97.2V0h174.8z" class="st2"/><path d="M368.3 111.3 512 31.5V0L311.7 111.3z" class="st1"/></svg>