<svg xmlns="http://www.w3.org/2000/svg" viewBox="0 0 512 512"><path d="M444.5 15.52H256L67.5 166.4h377z" fill="#0f9d58"/><path d="M67.5 15.52H256V166.4H67.5z" fill="#31aa52"/><path d="m314.37 405.1 55.83-280.9 141.82 28.2-55.83 280.87z" fill="#eb4132"/><path d="M384.47 76.08 256 101.63 55.86 433.37l384.47-76.47z" fill="#f8a808"/><path d="m0 152.55 55.86 280.82L256 393.57V101.62z" fill="#fbbd00"/><path d="M459.5 201.48H256l-60 147.5 60 147.5h203.5z" fill="#4175df"/><path d="M52.5 201.48H256v295H52.5z" fill="#4086f4"/><path d="M317.5 273.98h82v30h-82zm0 60h82v30h-82zm0 60h82v30h-82z" fill="#e3e7ea"/><path d="M256 333.98h-56v30h55.5a57.6 57.6 0 0 1-55.5 42.5c-31.7 0-57.5-25.8-57.5-57.5s25.8-57.5 57.5-57.5a57.2 57.2 0 0 1 36.8 13.34l19.2-23.05a87.06 87.06 0 0 0-56-20.29c-48.25 0-87.5 39.25-87.5 87.5s39.25 87.5 87.5 87.5a87.1 87.1 0 0 0 56-20.32l11.5-52.18z" fill="#fff"/><path d="M256 333.98v82.18a87.35 87.35 0 0 0 31.5-67.18v-15z" fill="#e3e7ea"/></svg>