<svg xmlns="http://www.w3.org/2000/svg" viewBox="0 0 475.1 475.1"><path d="M469.7 133.3 360 23.7c-3.6-3.6-7.9-5.4-12.8-5.4-2.3 0-4.7.4-7.2 1.4A17 17 0 0 0 329 36.5v54.9h-45.7c-20.2 0-38.9 1-56 3.1-17.3 2.1-32.5 5-45.6 8.7-13.2 3.7-25 8.3-35.6 13.9a152 152 0 0 0-27 17.5c-7.4 6.2-13.9 13.2-19.5 21.1-5.6 8-10 15.7-13.4 23.3-3.4 7.6-6 16-8 25.1a197 197 0 0 0-4 25.7c-.7 8-1 16.7-1 26 0 10.7 1.7 22.3 5 34.8 3.3 12.6 7 23.5 11 32.6a405.3 405.3 0 0 0 25.4 48c2 3.2 4 6.1 6 8.8a9 9 0 0 0 7.4 3.7c.8 0 2-.2 3.4-.6 4.4-2 6.3-5.3 5.7-9.7-8.5-64-1.5-109 21.2-135 21.9-25 63.5-37.4 125-37.4H329v54.8a17 17 0 0 0 11.1 16.9c2.5 1 4.9 1.4 7.2 1.4a17 17 0 0 0 12.8-5.4L469.7 159c3.6-3.6 5.4-7.9 5.4-12.8 0-5-1.8-9.3-5.4-12.9z"/><path d="M396 292.4c-3.6-1.6-7-.8-10 2.2-5 4.6-10 8.1-15.4 10.6-3.5 2-5.2 4.7-5.2 8.3v61a44 44 0 0 1-13.4 32.3 44 44 0 0 1-32.2 13.5H82.2A44 44 0 0 1 50 406.8a44 44 0 0 1-13.5-32.2V137A44 44 0 0 1 50 104.8a44 44 0 0 1 32.2-13.4h32c1.1 0 2.7-.4 4.6-1.2a190.6 190.6 0 0 1 38-17.1c4.9-1 7.4-4 7.4-9.1 0-2.5-1-4.7-2.8-6.5a8.8 8.8 0 0 0-6.4-2.7H82.2c-22.6 0-42 8-58 24.1A79.2 79.2 0 0 0 0 137v237.6c0 22.6 8 42 24.1 58 16.1 16.2 35.5 24.2 58.1 24.2h237.6c22.6 0 42-8 58-24.1 16.2-16.1 24.2-35.5 24.2-58.1v-74c0-3.8-2-6.5-6-8.2z"/></svg>