<svg xmlns="http://www.w3.org/2000/svg" viewBox="0 0 985.89 212.9" xml:space="preserve"><path d="m303.39 168.5-16.6-58.2h13.4l9.6 40.4h.5l10.6-40.4h11.5l10.6 40.5h.5l9.6-40.5h13.4l-16.6 58.2h-12l-11.1-38h-.5l-11.1 38h-11.8zm84.8.8c-4.5 0-8.3-.9-11.6-2.7-3.2-1.8-5.7-4.4-7.5-7.8a26.2 26.2 0 0 1-2.6-11.9c0-4.5.9-8.4 2.6-11.8 1.7-3.4 4.2-6 7.4-7.9 3.2-1.9 6.9-2.8 11.2-2.8 3.8 0 7.3.8 10.4 2.4 3.1 1.6 5.6 4.1 7.4 7.4 1.8 3.3 2.7 7.4 2.7 12.3v3.3h-29.7c0 3.3.9 5.8 2.7 7.7s4.2 2.8 7.2 2.8c2 0 3.8-.4 5.3-1.3s2.5-2.1 3.1-3.8l11.2.7c-.9 4.1-3 7.3-6.5 9.7-3.5 2.5-7.9 3.7-13.3 3.7zm-9.7-27h18.3c0-2.6-.9-4.7-2.5-6.4s-3.8-2.5-6.4-2.5c-2.7 0-4.9.9-6.6 2.6a8.92 8.92 0 0 0-2.8 6.3zm37.8 26.2v-58.2h12.1v21.9h.4c.5-1.2 1.3-2.4 2.3-3.6 1-1.2 2.3-2.2 4-3.1 1.6-.8 3.7-1.2 6.1-1.2 3.2 0 6.1.8 8.8 2.5 2.7 1.7 4.8 4.1 6.4 7.5 1.6 3.3 2.4 7.5 2.4 12.5 0 4.9-.8 9-2.4 12.3s-3.7 5.9-6.4 7.6-5.7 2.6-9 2.6c-2.3 0-4.3-.4-6-1.2s-3-1.8-4-2.9c-1-1.2-1.8-2.4-2.4-3.6h-.5v7h-11.8v-.1zm11.9-21.7c0 3.9.8 7 2.4 9.4s3.9 3.5 6.8 3.5c3 0 5.2-1.2 6.8-3.6 1.6-2.4 2.4-5.5 2.4-9.3s-.8-6.9-2.3-9.2c-1.6-2.4-3.8-3.5-6.8-3.5-2.9 0-5.2 1.2-6.8 3.5-1.7 2.2-2.5 5.2-2.5 9.2zm57.5 21.7v-58.2h23c4.4 0 8.2.8 11.3 2.5s5.5 4 7.1 7 2.5 6.4 2.5 10.2-.8 7.3-2.5 10.2-4.1 5.2-7.2 6.9c-3.2 1.7-7 2.5-11.4 2.5h-10.3v18.9h-12.5zm12.3-28.7h8.4c3.5 0 6.2-.9 7.9-2.7s2.6-4.2 2.6-7c0-2.9-.9-5.2-2.6-7-1.7-1.8-4.4-2.7-7.9-2.7h-8.3v19.4h-.1zm58.4 29.5c-4.5 0-8.3-.9-11.6-2.7-3.2-1.8-5.7-4.4-7.5-7.8a26.2 26.2 0 0 1-2.6-11.9c0-4.5.9-8.4 2.6-11.8 1.7-3.4 4.2-6 7.4-7.9 3.2-1.9 6.9-2.8 11.2-2.8 3.8 0 7.3.8 10.4 2.4 3.1 1.6 5.6 4.1 7.4 7.4 1.8 3.3 2.7 7.4 2.7 12.3v3.3h-29.7c0 3.3.9 5.8 2.7 7.7s4.2 2.8 7.2 2.8c2 0 3.8-.4 5.3-1.3s2.5-2.1 3.1-3.8l11.2.7c-.9 4.1-3 7.3-6.5 9.7-3.4 2.5-7.9 3.7-13.3 3.7zm-9.7-27h18.3c0-2.6-.9-4.7-2.5-6.4s-3.8-2.5-6.4-2.5c-2.7 0-4.9.9-6.6 2.6s-2.6 3.8-2.8 6.3zm37.7 26.2v-43.6h11.7v7.6h.5c.8-2.7 2.1-4.8 4-6.2 1.9-1.4 4-2.1 6.5-2.1 1.3 0 2.6.1 3.8.4v10.7c-.6-.2-1.4-.3-2.4-.5-1-.1-1.9-.2-2.8-.2-2.7 0-4.9.8-6.6 2.5-1.8 1.7-2.6 3.9-2.6 6.5v24.7h-12.1v.2zm57.9-43.6v9.1h-8.7v34.5h-12.1V134h-6.2v-9.1h6.2v-3.2c0-4.8 1.4-8.3 4.1-10.6 2.7-2.3 6.1-3.5 10.2-3.5 1.9 0 3.6.1 5.1.4s2.7.5 3.5.8l-2.1 9.1c-.5-.2-1.1-.3-1.8-.4s-1.4-.2-2.1-.2c-1.8 0-3 .4-3.7 1.2s-1 2-1 3.5v2.9h8.6zm25.5 44.4c-4.4 0-8.2-.9-11.4-2.8-3.2-1.9-5.7-4.5-7.4-7.9s-2.6-7.3-2.6-11.8.9-8.5 2.6-11.8c1.7-3.4 4.2-6 7.4-7.9 3.2-1.9 7-2.8 11.4-2.8s8.2.9 11.4 2.8c3.2 1.9 5.7 4.5 7.4 7.9s2.6 7.3 2.6 11.8-.9 8.4-2.6 11.8c-1.7 3.4-4.2 6-7.4 7.9-3.1 2-6.9 2.8-11.4 2.8zm.1-9.3c3 0 5.3-1.2 6.8-3.8 1.5-2.5 2.3-5.7 2.3-9.5s-.8-7-2.3-9.5-3.8-3.8-6.8-3.8-5.4 1.3-6.9 3.8c-1.6 2.5-2.3 5.7-2.3 9.5s.8 7 2.3 9.5c1.6 2.6 3.9 3.8 6.9 3.8zm29.3 8.5v-43.6h11.7v7.6h.5c.8-2.7 2.1-4.8 4-6.2 1.9-1.4 4-2.1 6.5-2.1 1.3 0 2.6.1 3.8.4v10.7c-.6-.2-1.4-.3-2.4-.5-1-.1-1.9-.2-2.8-.2-2.7 0-4.9.8-6.6 2.5-1.8 1.7-2.6 3.9-2.6 6.5v24.7h-12.1v.2zm32.7 0v-43.6h11.5v7.7h.5c.9-2.6 2.4-4.6 4.6-6.1 2.1-1.5 4.7-2.2 7.6-2.2 3 0 5.5.7 7.6 2.2 2.1 1.5 3.5 3.5 4.2 6h.5c.9-2.5 2.5-4.5 4.8-6s5.1-2.3 8.3-2.3c4.1 0 7.4 1.3 9.9 3.9 2.5 2.6 3.8 6.2 3.8 11v29.3h-12.1v-27c0-2.4-.6-4.2-1.9-5.5a6.81 6.81 0 0 0-4.8-1.8c-2.2 0-3.9.7-5.1 2.1-1.2 1.4-1.8 3.2-1.8 5.5v26.6h-11.7v-27.2c0-2.1-.6-3.8-1.8-5.1s-2.8-1.9-4.8-1.9-3.7.7-5.1 2.2c-1.4 1.5-2 3.4-2 5.8v26.2h-12.2v.2zm85.4.8c-4.2 0-7.6-1.1-10.4-3.3-2.7-2.2-4.1-5.4-4.1-9.7 0-3.3.8-5.8 2.3-7.7s3.5-3.2 6-4.1c2.5-.9 5.2-1.4 8.1-1.7 3.8-.4 6.5-.8 8.1-1.2s2.4-1.3 2.4-2.7v-.2c0-1.8-.6-3.2-1.7-4.2s-2.7-1.5-4.8-1.5c-2.2 0-3.9.5-5.2 1.4s-2.1 2.2-2.6 3.6l-11.2-.9a14.97 14.97 0 0 1 6.2-9.5c3.3-2.3 7.6-3.5 12.8-3.5 3.2 0 6.3.5 9.1 1.5s5.1 2.6 6.8 4.8 2.6 5 2.6 8.5v29.4h-11.3v-6.1h-.3c-1.1 2-2.6 3.7-4.8 5-2.1 1.6-4.8 2.1-8 2.1zm3.5-8.3c2.7 0 4.8-.8 6.5-2.3s2.6-3.5 2.6-5.8v-4.6c-.5.3-1.2.6-2.2.9s-2.1.5-3.2.6c-1.1.2-2.1.3-3 .5-2.1.3-3.8.9-5.1 1.8-1.3.9-1.9 2.2-1.9 3.9s.6 2.9 1.8 3.8 2.6 1.2 4.5 1.2zm42.6-17.7v25.2h-12.1v-43.6h11.5v7.7h.5c1-2.5 2.6-4.5 4.9-6 2.3-1.5 5-2.2 8.3-2.2 4.5 0 8.2 1.5 10.9 4.4 2.7 2.9 4.1 6.9 4.1 12v27.8h-12.1V143c0-2.7-.7-4.8-2-6.3-1.4-1.5-3.3-2.3-5.7-2.3s-4.4.8-6 2.3-2.3 3.8-2.3 6.6zm57.4 26c-4.5 0-8.3-1-11.5-2.9s-5.7-4.5-7.4-7.9-2.6-7.3-2.6-11.7c0-4.5.9-8.4 2.6-11.8 1.7-3.4 4.2-6 7.4-7.9 3.2-1.9 7-2.9 11.4-2.9 3.8 0 7.1.7 10 2.1s5.1 3.3 6.8 5.8 2.6 5.4 2.7 8.8h-11.4c-.3-2.2-1.2-3.9-2.5-5.3-1.4-1.3-3.2-2-5.4-2-2.8 0-5.1 1.1-6.8 3.4-1.7 2.3-2.6 5.4-2.6 9.6 0 4.2.8 7.4 2.5 9.7s4 3.4 6.8 3.4c2.1 0 3.8-.6 5.3-1.9 1.4-1.3 2.3-3.1 2.7-5.4h11.4c-.2 3.3-1.1 6.3-2.7 8.8s-3.8 4.5-6.7 5.9c-2.8 1.5-6.2 2.2-10 2.2zm47.1 0c-4.5 0-8.3-.9-11.6-2.7-3.2-1.8-5.7-4.4-7.5-7.8a26.2 26.2 0 0 1-2.6-11.9c0-4.5.9-8.4 2.6-11.8 1.7-3.4 4.2-6 7.4-7.9 3.2-1.9 6.9-2.8 11.2-2.8 3.8 0 7.3.8 10.4 2.4 3.1 1.6 5.6 4.1 7.4 7.4 1.8 3.3 2.7 7.4 2.7 12.3v3.3h-29.7c0 3.3.9 5.8 2.7 7.7s4.2 2.8 7.2 2.8c2 0 3.8-.4 5.3-1.3s2.5-2.1 3.1-3.8l11.2.7c-.9 4.1-3 7.3-6.5 9.7-3.5 2.5-7.9 3.7-13.3 3.7zm-9.7-27h18.3c0-2.6-.9-4.7-2.5-6.4s-3.8-2.5-6.4-2.5c-2.7 0-4.9.9-6.6 2.6s-2.6 3.8-2.8 6.3zm-664.6-60.5h-4.8l13.9-37.9h4.7l13.9 37.9h-4.8l-3.8-10.7h-15.3l-3.8 10.7zm5.3-14.7h12.4l-6.1-17.1h-.3l-6 17.1zm75.8-11.3c-.8-2.5-2.1-4.4-4-5.9a11.04 11.04 0 0 0-6.8-2.1c-2.2 0-4.2.6-6.1 1.8s-3.3 2.8-4.3 5.1c-1.1 2.3-1.6 5-1.6 8.3 0 3.3.5 6 1.7 8.3 1.1 2.3 2.6 4 4.4 5.1a12.46 12.46 0 0 0 12 .5c1.7-.9 2.9-2.2 3.9-3.8 1-1.6 1.4-3.6 1.5-5.9h-10v-4.1h14.4v4.1c0 3.1-.6 5.8-1.9 8.1-1.3 2.3-3.2 4.1-5.5 5.3-2.3 1.2-5 1.9-8 1.9-3.4 0-6.3-.8-8.8-2.4-2.6-1.6-4.5-3.8-5.9-6.7-1.4-2.9-2.1-6.4-2.1-10.3s.7-7.4 2.1-10.3c1.4-2.9 3.4-5.1 5.8-6.7 2.5-1.6 5.4-2.4 8.6-2.4 2.7 0 5 .5 7.3 1.6s4 2.5 5.4 4.3c1.4 1.9 2.4 4 2.8 6.5l-4.9-.3zm36.1 26V44h22.8v4.1h-18.2v12.8h17.1V65h-17.1v12.8h18.6v4.1h-23.2v-.1zm84.6-37.8v37.9h-4.4l-20.6-29.8h-.4v29.7h-4.6V44h4.4l20.7 29.8h.4V44h4.5zm63 11.8h-4.6c-.4-1.8-1.1-3.2-2.1-4.4-1.1-1.2-2.3-2.1-3.8-2.7-1.5-.6-3.1-.9-4.7-.9-2.3 0-4.3.6-6.2 1.8s-3.4 2.8-4.4 5.1c-1.1 2.3-1.6 5-1.6 8.3 0 3.3.5 6 1.6 8.3s2.6 4 4.4 5.1a12.1 12.1 0 0 0 10.9.9c1.5-.6 2.7-1.5 3.8-2.7s1.8-2.7 2.1-4.4h4.6c-.4 2.6-1.4 4.8-2.8 6.6-1.4 1.9-3.2 3.3-5.4 4.2-2.1 1-4.4 1.5-7 1.5a15.66 15.66 0 0 1-14.5-9.1c-1.4-2.9-2.1-6.4-2.1-10.3s.7-7.4 2.1-10.3a15.66 15.66 0 0 1 14.5-9.1c2.6 0 4.9.5 7 1.5s3.9 2.4 5.4 4.2c1.3 1.7 2.3 3.9 2.8 6.4zm30.8 26V44h22.8v4.1h-18.2v12.8h17.1V65h-17.1v12.8h18.6v4.1h-23.2v-.1z" style="fill:#384455"/><linearGradient id="logo-a" gradientUnits="userSpaceOnUse" x1="21.2" y1="104.96" x2="59.48" y2="-4.35"><stop offset=".21" style="stop-color:#00f0ca"/><stop offset=".38" style="stop-color:#02eed0;stop-opacity:.87"/><stop offset=".6" style="stop-color:#09e7e1;stop-opacity:.71"/><stop offset=".85" style="stop-color:#15ddfd;stop-opacity:.51"/><stop offset=".87" style="stop-color:#16dcff;stop-opacity:.5"/></linearGradient><path d="m72.07 75.61-7.76-13.43-.16-.3-7.84-13.94S41.64 22.44 71.22.53L71.9 0H50.26C11.63 0-12.52 41.82 6.8 75.28l16.36 28.34.08.14a7.55 7.55 0 0 0 10.28 2.75L69.3 85.85a7.54 7.54 0 0 0 2.77-10.24z" style="fill:url(#logo-a)"/><linearGradient id="logo-b" gradientUnits="userSpaceOnUse" x1="52.57" y1="155.36" x2="165.36" y2="186.43"><stop offset="0" style="stop-color:#0049ff"/><stop offset="1" style="stop-color:#6981fe;stop-opacity:.35"/></linearGradient><path d="M102.65 128.57a7.55 7.55 0 0 0-9.76-1.99l-35.86 20.7a7.55 7.55 0 0 0-3.04 9.72l17.78 30.8c19.32 33.46 67.61 33.46 86.92 0l12.03-20.84-2.91 1.18C134 182.7 119.33 157.2 119.33 157.2l-16.68-28.63z" style="fill:url(#logo-b)"/><linearGradient id="logo-c" gradientUnits="userSpaceOnUse" x1="212.3" y1="11.01" x2="118.32" y2="160.25"><stop offset="0" style="stop-color:#13dcff"/><stop offset="1" style="stop-color:#0700fe;stop-opacity:.5"/></linearGradient><path d="m170.17 62.48-23.22 40.22-23.22 40.22a7.5 7.5 0 0 1-11.92 1.41l4.15 7.13 1.98 3.4.01-.01 1.39 2.36s14.67 25.5 48.48 10.94l2.91-1.18 5.19-8.98 15.27-26.44 32.48-56.26C242.98 41.82 218.83 0 180.2 0h-17.6l.68.53c29.58 21.91 14.91 47.41 14.91 47.41l-8.02 14.54z" style="fill:url(#logo-c)"/><linearGradient id="logo-d" gradientUnits="userSpaceOnUse" x1="53.41" y1="24.12" x2="181.33" y2="38.7"><stop offset="0" style="stop-color:#00d9ff"/><stop offset="1" style="stop-color:#00d9ff;stop-opacity:.3"/></linearGradient><path d="M178.17 47.95s14.67-25.5-14.91-47.41l-.68-.53H71.89l-.68.53C41.63 22.45 56.3 47.95 56.3 47.95l7.84 13.94a7.48 7.48 0 0 1 6.64-10.93h92.88c5.76 0 9.54 6.26 6.66 11.25l7.85-14.26z" style="fill:url(#logo-d)"/></svg>