<?xml version="1.0" encoding="UTF-8"?> <svg xmlns="http://www.w3.org/2000/svg" version="1.1" id="Dark" x="0" y="0" viewBox="0 0 200 45.49" xml:space="preserve"><style>.st0{fill:#fff}</style><path class="st0" d="M36.79 32.43l-7.51-3.5 1.2-2.58c.42-.9.67-1.84.76-2.78a8.55 8.55 0 00-2.51-6.91 8.496 8.496 0 00-2.37-1.64 8.48 8.48 0 00-2.78-.76 8.55 8.55 0 00-6.91 2.51c-.66.67-1.22 1.47-1.64 2.37l-1.2 2.58-2.31 4.95c-.05.11 0 .25.11.3l4.95 2.31 2.58 1.2 2.58 1.2 5.15 2.4 5.66 2.64C27.61 40.16 21 40.9 15.19 38.04 6.84 33.92 3.34 23.76 7.38 15.36S21.48 3.35 29.96 7.3c6.68 3.11 10.39 10 9.79 16.94-.01.1.04.19.13.23l4.97 2.32c.14.06.3-.02.32-.17 1.71-9.91-3.34-20.12-12.93-24.53-11.4-5.23-24.8-.31-30.1 11.06-5.31 11.38-.38 24.91 11 30.21 8.65 4.03 18.54 2.16 25.12-3.97 1.35-1.26 2.57-2.7 3.6-4.31.07-.12.03-.27-.1-.33l-4.97-2.32zm-17.82-8.3l1.2-2.58a2.837 2.837 0 013.78-1.37 2.85 2.85 0 011.38 3.78l-1.2 2.58-2.58-1.2-2.58-1.21zM76.55 18.9c0 2.54-.79 4.49-2.38 5.84-1.59 1.35-3.85 2.02-6.78 2.02h-2.15v8.41h-5.01V11.53h7.55c2.87 0 5.05.62 6.54 1.85 1.48 1.23 2.23 3.07 2.23 5.52zm-11.32 3.75h1.65c1.54 0 2.69-.3 3.46-.91.77-.61 1.15-1.5 1.15-2.66 0-1.17-.32-2.04-.96-2.6-.64-.56-1.65-.84-3.01-.84h-2.28v7.01zM89.25 16.75c.67 0 1.22.05 1.66.15l-.37 4.62c-.4-.11-.88-.16-1.45-.16-1.57 0-2.8.4-3.68 1.21-.88.81-1.32 1.94-1.32 3.39v9.2h-4.93V17.09h3.73l.73 3.04h.24a6.85 6.85 0 012.27-2.45c.96-.62 1.99-.93 3.12-.93zM101.1 35.48c-2.91 0-5.18-.8-6.82-2.41-1.64-1.61-2.46-3.88-2.46-6.82 0-3.03.76-5.37 2.27-7.02 1.51-1.65 3.61-2.48 6.28-2.48 2.55 0 4.54.73 5.96 2.18 1.42 1.45 2.13 3.46 2.13 6.03v2.39H96.82c.05 1.4.47 2.5 1.24 3.28.78.79 1.86 1.18 3.27 1.18 1.09 0 2.12-.11 3.09-.34.97-.23 1.98-.59 3.04-1.08v3.81c-.86.43-1.78.75-2.76.96-.99.22-2.19.32-3.6.32zm-.69-15.22c-1.05 0-1.86.33-2.46.99-.59.66-.93 1.6-1.02 2.82h6.92c-.02-1.22-.34-2.16-.95-2.82-.62-.66-1.45-.99-2.49-.99zM127.59 35.16h-4.93V24.61c0-1.3-.22-2.28-.65-2.93-.44-.65-1.12-.98-2.06-.98-1.26 0-2.18.46-2.75 1.39-.57.93-.86 2.45-.86 4.57v8.5h-4.93V17.09h3.77l.66 2.31h.27c.48-.83 1.19-1.48 2.1-1.95.92-.47 1.97-.7 3.15-.7 2.71 0 4.54.88 5.5 2.65h.44c.48-.84 1.2-1.49 2.14-1.96.94-.46 2.01-.69 3.19-.69 2.05 0 3.6.53 4.65 1.58 1.05 1.05 1.58 2.73 1.58 5.05v11.78h-4.95V24.61c0-1.3-.22-2.28-.65-2.93-.44-.65-1.12-.98-2.06-.98-1.21 0-2.11.43-2.71 1.29-.6.86-.9 2.23-.9 4.11v9.06zM142.63 12.42c0-1.61.89-2.41 2.68-2.41s2.68.8 2.68 2.41c0 .77-.22 1.36-.67 1.79-.45.43-1.12.64-2.01.64-1.79-.01-2.68-.82-2.68-2.43zm5.14 22.74h-4.93V17.09h4.93v18.07zM164.67 35.16l-.66-2.31h-.26c-.53.84-1.28 1.49-2.25 1.95-.97.46-2.07.69-3.31.69-2.12 0-3.72-.57-4.8-1.71-1.08-1.14-1.62-2.77-1.62-4.91V17.09h4.93v10.56c0 1.3.23 2.28.7 2.93.46.65 1.2.98 2.21.98 1.38 0 2.38-.46 2.99-1.38.61-.92.92-2.45.92-4.58v-8.5h4.93v18.07h-3.78zM188.73 35.16h-4.93V24.61c0-1.3-.22-2.28-.65-2.93-.44-.65-1.12-.98-2.06-.98-1.26 0-2.18.46-2.75 1.39-.57.93-.86 2.45-.86 4.57v8.5h-4.93V17.09h3.77l.66 2.31h.27c.48-.83 1.19-1.48 2.1-1.95.92-.47 1.97-.7 3.15-.7 2.71 0 4.54.88 5.5 2.65h.44c.48-.84 1.2-1.49 2.14-1.96.94-.46 2.01-.69 3.19-.69 2.05 0 3.6.53 4.65 1.58s1.58 2.73 1.58 5.05v11.78h-4.95V24.61c0-1.3-.22-2.28-.65-2.93-.44-.65-1.12-.98-2.06-.98-1.21 0-2.11.43-2.71 1.29-.6.86-.9 2.23-.9 4.11v9.06z"></path></svg> 