<?xml version="1.0" encoding="UTF-8"?> <svg xmlns="http://www.w3.org/2000/svg" xmlns:xlink="http://www.w3.org/1999/xlink" role="img" aria-hidden="true" viewBox="0 0 520 240"><defs></defs><defs><linearGradient id="a" x1="175.23" x2="175.23" y1="172.92" y2="62.17" gradientUnits="userSpaceOnUse"><stop offset="0" stop-color="#570732"></stop><stop offset=".04" stop-color="#610b39"></stop><stop offset=".15" stop-color="#79164b"></stop><stop offset=".29" stop-color="#8c1e59"></stop><stop offset=".44" stop-color="#9a2463"></stop><stop offset=".63" stop-color="#a22768"></stop><stop offset="1" stop-color="#a4286a"></stop></linearGradient><linearGradient id="b" x1="476.05" x2="476.05" y1="194.48" y2="36.51" xlink:href="#a"></linearGradient><linearGradient id="c" x1="287.15" x2="287.15" y1="172.55" y2="61.84" xlink:href="#a"></linearGradient><linearGradient id="d" x1="390.54" x2="390.54" y1="172.99" y2="61.27" xlink:href="#a"></linearGradient><linearGradient id="e" x1="76.15" x2="76.15" y1="3.2" y2="178.39" gradientUnits="userSpaceOnUse"><stop offset="0" stop-color="#77b227"></stop><stop offset=".47" stop-color="#75b027"></stop><stop offset=".64" stop-color="#6eab27"></stop><stop offset=".75" stop-color="#63a027"></stop><stop offset=".85" stop-color="#529228"></stop><stop offset=".93" stop-color="#3c8028"></stop><stop offset="1" stop-color="#246b29"></stop></linearGradient></defs><path fill="url(#a)" d="M175.31 62.17c-38.63 0-54.09 25.93-54.09 54.81 0 30 15.23 55.94 54.09 55.94s54-27.15 53.93-54.18c-.09-32.92-16.75-56.57-53.93-56.57zm-23.41 56.44C152.84 80 182.52 80 192.43 93.85c9 12.62 10.89 55.74-17.12 55.42-12.9-.14-23.03-8.86-23.41-30.66z"></path><path fill="url(#b)" d="M488.68 146.13v-56h20V65.86h-20V36.51h-30.9v29.35H442.1v24.29h15.68V143c0 30 20.92 47.84 43 51.53l9.22-24.9c-12.87-1.63-21.2-11.25-21.32-23.5z"></path><path fill="url(#c)" d="M332.75 137.26V95.19a43.87 43.87 0 00-.24-4.39c-2.68-34-50.95-33.92-88.34-20.87L255 91.68c24.35-11.56 38.92-8.58 44-2.88.13.15.26.29.38.45a.21.21 0 000 .06c2.6 3.5 2 9 2 13.38-31.81 0-65.67 4.23-65.67 39.12 0 26.53 33.23 43.59 68 18.31l5.16 12.43h29.76c-2.7-14.55-5.88-27.1-5.88-35.29zm-31.13-.26c-24.48 27.39-46.89 1.61-23.94-9.64 6.76-2.3 15.93-2.4 23.94-2.4z"></path><path fill="url(#d)" d="M380.25 92.92c0-10.36 16.6-15.21 42.77-3.26l9.05-22C396.85 57 348.75 56.08 348.43 92.92c-.14 17.66 11.18 27.16 27.49 33.22 11.29 4.2 27.6 6.37 27.55 15.37-.06 11.75-25.34 13.55-48.35-2.26l-9.3 23.84c31.38 15.62 89.75 16.06 89.44-23.09-.26-38.7-55.01-32.07-55.01-47.08z"></path><path fill="url(#e)" d="M108.16 9.16l-44.8 124.43L41.91 66.4H10l35.72 91.76a33.41 33.41 0 010 24.3c-4 10.24-10.64 19-26.83 21.18v27.2c31.53 0 48.58-19.38 63.79-61.87L142.3 9.16z"></path></svg> 